<svg viewBox="0 0 195 24" fill="none" xmlns="http://www.w3.org/2000/svg">
      <path d="M12.376 23.32C10.6693 23.32 9.08 23.0427 7.608 22.488C6.15733 21.912 4.888 21.112 3.8 20.088C2.73333 19.0427 1.90133 17.816 1.304 16.408C0.706667 15 0.408 13.464 0.408 11.8C0.408 10.136 0.706667 8.6 1.304 7.192C1.90133 5.784 2.744 4.568 3.832 3.544C4.92 2.49867 6.18933 1.69867 7.64 1.144C9.09067 0.567999 10.68 0.279999 12.408 0.279999C14.2427 0.279999 15.9173 0.599999 17.432 1.24C18.9467 1.85867 20.2267 2.78667 21.272 4.024L18.584 6.552C17.7733 5.67733 16.8667 5.02667 15.864 4.6C14.8613 4.152 13.7733 3.928 12.6 3.928C11.4267 3.928 10.3493 4.12 9.368 4.504C8.408 4.888 7.56533 5.432 6.84 6.136C6.136 6.84 5.58133 7.672 5.176 8.632C4.792 9.592 4.6 10.648 4.6 11.8C4.6 12.952 4.792 14.008 5.176 14.968C5.58133 15.928 6.136 16.76 6.84 17.464C7.56533 18.168 8.408 18.712 9.368 19.096C10.3493 19.48 11.4267 19.672 12.6 19.672C13.7733 19.672 14.8613 19.4587 15.864 19.032C16.8667 18.584 17.7733 17.912 18.584 17.016L21.272 19.576C20.2267 20.792 18.9467 21.72 17.432 22.36C15.9173 23 14.232 23.32 12.376 23.32ZM40.0852 23.32C38.3359 23.32 36.7252 23.032 35.2533 22.456C33.7812 21.88 32.5012 21.08 31.4132 20.056C30.3252 19.0107 29.4826 17.7947 28.8852 16.408C28.2879 15 27.9892 13.464 27.9892 11.8C27.9892 10.136 28.2879 8.61067 28.8852 7.224C29.4826 5.816 30.3252 4.6 31.4132 3.576C32.5012 2.53067 33.7812 1.72 35.2533 1.144C36.7252 0.567999 38.3252 0.279999 40.0533 0.279999C41.8026 0.279999 43.4026 0.567999 44.8533 1.144C46.3253 1.72 47.6053 2.53067 48.6933 3.576C49.7813 4.6 50.6239 5.816 51.2213 7.224C51.8186 8.61067 52.1173 10.136 52.1173 11.8C52.1173 13.464 51.8186 15 51.2213 16.408C50.6239 17.816 49.7813 19.032 48.6933 20.056C47.6053 21.08 46.3253 21.88 44.8533 22.456C43.4026 23.032 41.8132 23.32 40.0852 23.32ZM40.0533 19.672C41.1839 19.672 42.2293 19.48 43.1893 19.096C44.1493 18.712 44.9812 18.168 45.6852 17.464C46.3893 16.7387 46.9333 15.9067 47.3172 14.968C47.7226 14.008 47.9253 12.952 47.9253 11.8C47.9253 10.648 47.7226 9.60267 47.3172 8.664C46.9333 7.704 46.3893 6.872 45.6852 6.168C44.9812 5.44267 44.1493 4.888 43.1893 4.504C42.2293 4.12 41.1839 3.928 40.0533 3.928C38.9226 3.928 37.8773 4.12 36.9172 4.504C35.9786 4.888 35.1466 5.44267 34.4212 6.168C33.7172 6.872 33.1626 7.704 32.7572 8.664C32.3732 9.60267 32.1812 10.648 32.1812 11.8C32.1812 12.9307 32.3732 13.976 32.7572 14.936C33.1626 15.896 33.7172 16.7387 34.4212 17.464C35.1252 18.168 35.9572 18.712 36.9172 19.096C37.8773 19.48 38.9226 19.672 40.0533 19.672ZM61.3267 23V0.599998H70.5427C72.5267 0.599998 74.2227 0.919999 75.6307 1.56C77.0601 2.2 78.1587 3.11733 78.9268 4.312C79.6947 5.50667 80.0787 6.92533 80.0787 8.568C80.0787 10.2107 79.6947 11.6293 78.9268 12.824C78.1587 13.9973 77.0601 14.904 75.6307 15.544C74.2227 16.1627 72.5267 16.472 70.5427 16.472H63.6307L65.4867 14.584V23H61.3267ZM75.9827 23L70.3187 14.872H74.7667L80.4627 23H75.9827ZM65.4867 15.032L63.6307 13.048H70.3507C72.1854 13.048 73.5614 12.6533 74.4787 11.864C75.4174 11.0747 75.8867 9.976 75.8867 8.568C75.8867 7.13867 75.4174 6.04 74.4787 5.272C73.5614 4.504 72.1854 4.12 70.3507 4.12H63.6307L65.4867 2.072V15.032ZM93.373 9.912H104.509V13.336H93.373V9.912ZM93.693 19.512H106.333V23H89.533V0.599998H105.885V4.088H93.693V19.512ZM119.61 9.912H130.746V13.336H119.61V9.912ZM119.93 19.512H132.57V23H115.77V0.599998H132.122V4.088H119.93V19.512Z" fill="#005998"/>
      <path d="M152.472 23.32C150.723 23.32 149.112 23.0427 147.64 22.488C146.189 21.912 144.92 21.112 143.832 20.088C142.744 19.0427 141.901 17.816 141.304 16.408C140.707 15 140.408 13.464 140.408 11.8C140.408 10.136 140.707 8.6 141.304 7.192C141.901 5.784 142.744 4.568 143.832 3.544C144.941 2.49867 146.232 1.69867 147.704 1.144C149.176 0.567999 150.787 0.279999 152.536 0.279999C154.435 0.279999 156.141 0.589332 157.656 1.208C159.192 1.82667 160.483 2.73333 161.528 3.928L158.904 6.488C158.029 5.61333 157.08 4.97333 156.056 4.568C155.053 4.14133 153.944 3.928 152.728 3.928C151.555 3.928 150.467 4.12 149.464 4.504C148.461 4.888 147.597 5.432 146.872 6.136C146.147 6.84 145.581 7.672 145.176 8.632C144.792 9.592 144.6 10.648 144.6 11.8C144.6 12.9307 144.792 13.976 145.176 14.936C145.581 15.896 146.147 16.7387 146.872 17.464C147.597 18.168 148.451 18.712 149.432 19.096C150.413 19.48 151.501 19.672 152.696 19.672C153.805 19.672 154.872 19.5013 155.896 19.16C156.941 18.7973 157.933 18.2 158.872 17.368L161.24 20.472C160.067 21.4107 158.701 22.1253 157.144 22.616C155.608 23.0853 154.051 23.32 152.472 23.32ZM157.304 19.928V11.544H161.24V20.472L157.304 19.928ZM182.023 23.32C180.273 23.32 178.663 23.032 177.191 22.456C175.719 21.88 174.439 21.08 173.351 20.056C172.263 19.0107 171.42 17.7947 170.823 16.408C170.225 15 169.927 13.464 169.927 11.8C169.927 10.136 170.225 8.61067 170.823 7.224C171.42 5.816 172.263 4.6 173.351 3.576C174.439 2.53067 175.719 1.72 177.191 1.144C178.663 0.567999 180.263 0.279999 181.991 0.279999C183.74 0.279999 185.34 0.567999 186.791 1.144C188.263 1.72 189.543 2.53067 190.631 3.576C191.719 4.6 192.561 5.816 193.159 7.224C193.756 8.61067 194.055 10.136 194.055 11.8C194.055 13.464 193.756 15 193.159 16.408C192.561 17.816 191.719 19.032 190.631 20.056C189.543 21.08 188.263 21.88 186.791 22.456C185.34 23.032 183.751 23.32 182.023 23.32ZM181.991 19.672C183.121 19.672 184.167 19.48 185.127 19.096C186.087 18.712 186.919 18.168 187.623 17.464C188.327 16.7387 188.871 15.9067 189.255 14.968C189.66 14.008 189.863 12.952 189.863 11.8C189.863 10.648 189.66 9.60267 189.255 8.664C188.871 7.704 188.327 6.872 187.623 6.168C186.919 5.44267 186.087 4.888 185.127 4.504C184.167 4.12 183.121 3.928 181.991 3.928C180.86 3.928 179.815 4.12 178.855 4.504C177.916 4.888 177.084 5.44267 176.359 6.168C175.655 6.872 175.1 7.704 174.695 8.664C174.311 9.60267 174.119 10.648 174.119 11.8C174.119 12.9307 174.311 13.976 174.695 14.936C175.1 15.896 175.655 16.7387 176.359 17.464C177.063 18.168 177.895 18.712 178.855 19.096C179.815 19.48 180.86 19.672 181.991 19.672Z" fill="#CE293B"/>
      </svg>
