<svg width="314" height="54" viewBox="0 0 314 54" fill="none" xmlns="http://www.w3.org/2000/svg">
      <path d="M39.112 39.904C39.736 41.296 39.76 42.664 39.184 44.008C38.608 45.304 37.696 46.504 36.448 47.608C35.2 48.712 33.76 49.672 32.128 50.488C30.544 51.304 29.032 51.88 27.592 52.216C26.008 52.552 24.328 52.696 22.552 52.648C20.824 52.648 19.072 52.432 17.296 52C15.568 51.616 13.864 51.04 12.184 50.272C10.552 49.456 9.04 48.472 7.648 47.32C5.968 45.928 4.648 44.272 3.688 42.352C2.776 40.384 2.104 38.296 1.672 36.088C1.24 33.88 1 31.672 0.952 29.464C0.952 27.208 1.024 25.096 1.168 23.128C1.312 21.352 1.672 19.504 2.248 17.584C2.824 15.664 3.616 13.792 4.624 11.968C5.68 10.096 6.928 8.368 8.368 6.784C9.856 5.2 11.584 3.856 13.552 2.752C15.04 1.888 16.696 1.312 18.52 1.024C20.392 0.687998 22.264 0.615998 24.136 0.807998C26.056 0.951999 27.856 1.36 29.536 2.032C31.264 2.656 32.728 3.52 33.928 4.624C34.696 5.296 35.488 6.232 36.304 7.432C37.168 8.632 37.792 9.856 38.176 11.104C38.56 12.352 38.56 13.528 38.176 14.632C37.84 15.688 36.88 16.408 35.296 16.792C34.624 16.984 34.024 17.032 33.496 16.936C32.968 16.792 32.488 16.576 32.056 16.288C31.624 15.952 31.216 15.568 30.832 15.136C30.448 14.704 30.088 14.272 29.752 13.84C28.6 12.448 27.256 11.512 25.72 11.032C24.184 10.504 22.648 10.384 21.112 10.672C19.624 10.912 18.208 11.536 16.864 12.544C15.568 13.504 14.56 14.752 13.84 16.288C13.072 17.92 12.448 19.72 11.968 21.688C11.536 23.608 11.296 25.576 11.248 27.592C11.2 29.56 11.368 31.48 11.752 33.352C12.184 35.224 12.904 36.88 13.912 38.32C14.68 39.472 15.616 40.408 16.72 41.128C17.872 41.848 19.096 42.352 20.392 42.64C21.688 42.928 22.984 42.976 24.28 42.784C25.624 42.592 26.92 42.16 28.168 41.488C28.552 41.296 28.96 41.032 29.392 40.696C29.872 40.312 30.352 39.928 30.832 39.544C31.312 39.16 31.792 38.8 32.272 38.464C32.8 38.128 33.352 37.888 33.928 37.744C34.792 37.456 35.728 37.48 36.736 37.816C37.792 38.152 38.584 38.848 39.112 39.904ZM55.9521 2.752C59.1681 1.552 62.0721 1.024 64.6641 1.168C67.3041 1.312 69.6561 1.984 71.7201 3.184C73.7841 4.336 75.5361 5.896 76.9761 7.864C78.4641 9.832 79.6641 12.04 80.5761 14.488C81.2961 16.312 81.8481 18.232 82.2321 20.248C82.6161 22.264 82.8321 24.28 82.8801 26.296C82.9761 28.264 82.9041 30.208 82.6641 32.128C82.4721 34.048 82.1361 35.824 81.6561 37.456C81.3681 38.56 81.0321 39.568 80.6481 40.48C80.2641 41.392 79.8081 42.304 79.2801 43.216C78.0801 45.28 76.5201 46.96 74.6001 48.256C72.7281 49.552 70.6641 50.464 68.4081 50.992C66.8721 51.376 65.2881 51.568 63.6561 51.568C62.0241 51.52 60.4161 51.304 58.8321 50.92C57.2481 50.488 55.7121 49.888 54.2241 49.12C52.7841 48.304 51.4641 47.296 50.2641 46.096C48.7761 44.656 47.5521 43 46.5921 41.128C45.6321 39.208 44.8881 37.216 44.3601 35.152C43.8321 33.04 43.4961 30.928 43.3521 28.816C43.2081 26.704 43.2081 24.688 43.3521 22.768C43.4961 20.992 43.8321 19.096 44.3601 17.08C44.9361 15.064 45.7521 13.12 46.8081 11.248C47.8641 9.376 49.1361 7.696 50.6241 6.208C52.1601 4.672 53.9361 3.52 55.9521 2.752ZM72.8001 33.568C73.3761 31.312 73.6161 28.768 73.5201 25.936C73.4241 23.104 72.9681 20.44 72.1521 17.944C71.6241 16.408 70.9521 15.064 70.1361 13.912C69.3681 12.712 68.4321 11.8 67.3281 11.176C66.2721 10.552 65.0241 10.24 63.5841 10.24C62.1441 10.24 60.5361 10.672 58.7601 11.536C57.7041 12.064 56.7921 12.784 56.0241 13.696C55.3041 14.608 54.7041 15.64 54.2241 16.792C53.7921 17.944 53.4321 19.144 53.1441 20.392C52.9041 21.64 52.7601 22.84 52.7121 23.992C52.6161 25.24 52.5921 26.56 52.6401 27.952C52.6881 29.296 52.8321 30.664 53.0721 32.056C53.3601 33.4 53.7441 34.696 54.2241 35.944C54.7041 37.144 55.3521 38.224 56.1681 39.184C57.4161 40.624 58.8561 41.632 60.4881 42.208C62.1681 42.736 63.8241 42.808 65.4561 42.424C68.0961 41.848 70.1121 40.096 71.5041 37.168C72.0801 36.112 72.5121 34.912 72.8001 33.568ZM125.923 48.832C125.971 49.312 125.923 49.768 125.779 50.2C125.683 50.488 125.539 50.728 125.347 50.92C125.203 51.112 125.011 51.304 124.771 51.496C124.339 51.784 123.811 52.048 123.187 52.288C122.803 52.384 122.419 52.456 122.035 52.504C121.699 52.6 121.339 52.6 120.955 52.504C120.187 52.456 119.515 52.168 118.939 51.64C118.123 50.968 117.451 50.224 116.923 49.408C116.683 49.024 116.419 48.592 116.131 48.112C115.843 47.632 115.579 47.128 115.339 46.6L107.347 31.408C106.963 31.408 106.579 31.432 106.195 31.48C105.811 31.48 105.427 31.504 105.043 31.552C104.035 31.648 103.075 31.672 102.163 31.624C101.299 31.576 100.387 31.576 99.4266 31.624H98.0586V44.656C98.0586 45.04 98.0346 45.4 97.9866 45.736C97.9866 46.072 97.9866 46.432 97.9866 46.816C97.9866 47.056 97.9626 47.368 97.9146 47.752C97.9146 48.136 97.8906 48.496 97.8426 48.832C97.7466 49.36 97.5306 49.912 97.1946 50.488C96.8586 51.016 96.4026 51.472 95.8266 51.856C94.8186 52.48 93.5946 52.648 92.1546 52.36C91.5306 52.216 90.9306 51.976 90.3546 51.64C90.1626 51.496 89.9946 51.328 89.8506 51.136C89.7066 50.896 89.5866 50.656 89.4906 50.416C89.3946 50.176 89.2986 49.936 89.2026 49.696C89.1546 49.408 89.0826 49.144 88.9866 48.904C88.8426 48.424 88.7706 47.968 88.7706 47.536V6.64C88.7706 6.352 88.7706 6.064 88.7706 5.776C88.8186 5.44 88.8666 5.152 88.9146 4.912C88.9626 4.384 89.1306 3.856 89.4186 3.328C89.5626 2.752 89.8026 2.344 90.1386 2.104C90.4266 1.816 90.8586 1.576 91.4346 1.384C92.0586 1.144 92.9466 1.048 94.0986 1.096C96.2586 1.144 98.3946 1.168 100.507 1.168C102.619 1.168 104.731 1.216 106.843 1.312C108.235 1.408 109.699 1.576 111.235 1.816C112.819 2.008 114.283 2.368 115.627 2.896C116.491 3.232 117.283 3.568 118.003 3.904C118.915 4.432 119.635 4.936 120.163 5.416C121.843 6.952 123.115 8.8 123.979 10.96C124.843 13.12 125.275 15.304 125.275 17.512C125.275 20.104 124.651 22.48 123.403 24.64C122.203 26.8 120.259 28.408 117.571 29.464C117.475 29.56 117.331 29.632 117.139 29.68C116.995 29.68 116.875 29.704 116.779 29.752L123.403 43.072L124.051 44.224C124.147 44.416 124.267 44.632 124.411 44.872C124.555 45.112 124.675 45.352 124.771 45.592C124.915 45.832 125.035 46.096 125.131 46.384C125.275 46.672 125.419 46.936 125.563 47.176C125.707 47.848 125.827 48.4 125.923 48.832ZM107.923 23.2C108.787 23.2 109.603 23.056 110.371 22.768C111.187 22.432 111.907 22 112.531 21.472C113.203 20.944 113.755 20.344 114.187 19.672C114.619 18.952 114.859 18.184 114.907 17.368C115.099 14.968 114.475 13.192 113.035 12.04C111.595 10.84 109.699 10.192 107.347 10.096C105.955 10 104.419 9.952 102.739 9.952C101.107 9.952 99.5466 9.952 98.0586 9.952C98.1066 11.92 98.1066 13.936 98.0586 16C98.0586 18.016 98.0586 20.416 98.0586 23.2H107.923ZM141.596 9.664L141.452 20.968H144.332C146.3 20.92 148.052 20.896 149.588 20.896C151.124 20.896 152.828 20.92 154.7 20.968H155.06C155.636 20.968 156.188 20.992 156.716 21.04C157.292 21.04 157.844 21.04 158.372 21.04C158.948 21.088 159.5 21.184 160.028 21.328C160.556 21.424 161.084 21.544 161.612 21.688C162.428 21.976 163.1 22.408 163.628 22.984C164.108 23.608 164.348 24.304 164.348 25.072C164.348 25.312 164.348 25.6 164.348 25.936C164.348 26.224 164.3 26.488 164.204 26.728C164.108 27.256 163.796 27.736 163.268 28.168C163.028 28.504 162.572 28.744 161.9 28.888C161.276 29.08 160.652 29.2 160.028 29.248C159.356 29.392 158.684 29.464 158.012 29.464H154.628L141.308 29.536L141.164 43.648L155.492 43.792H158.876C159.26 43.792 159.62 43.792 159.956 43.792C160.292 43.792 160.604 43.816 160.892 43.864C161.276 43.96 161.612 44.032 161.9 44.08C162.236 44.08 162.548 44.128 162.836 44.224C163.412 44.416 163.892 44.68 164.276 45.016C164.756 45.496 165.068 46 165.212 46.528C165.26 46.768 165.284 47.032 165.284 47.32C165.332 47.56 165.332 47.824 165.284 48.112C165.284 48.88 165.044 49.576 164.564 50.2C163.988 50.872 163.316 51.304 162.548 51.496C161.54 51.928 160.436 52.144 159.236 52.144C158.708 52.192 158.156 52.216 157.58 52.216C157.004 52.216 156.452 52.24 155.924 52.288H155.492C151.748 52.384 147.86 52.384 143.828 52.288C142.868 52.288 142.1 52.264 141.524 52.216C140.948 52.216 140.42 52.216 139.94 52.216C139.508 52.216 139.052 52.216 138.572 52.216C138.092 52.216 137.468 52.216 136.7 52.216C135.596 52.312 134.684 52.12 133.964 51.64C133.436 51.304 133.028 50.848 132.74 50.272C132.596 50.128 132.524 49.984 132.524 49.84C132.476 49.744 132.428 49.672 132.38 49.624C132.332 49.576 132.284 49.504 132.236 49.408C132.14 49.168 132.068 48.928 132.02 48.688C131.972 48.4 131.948 48.136 131.948 47.896C131.9 47.656 131.852 47.416 131.804 47.176C131.804 46.936 131.78 46.696 131.732 46.456V45.304C131.732 45.112 131.732 44.92 131.732 44.728C131.78 44.536 131.804 44.344 131.804 44.152V38.536L131.948 28.168V18.592C131.948 16.864 131.948 15.328 131.948 13.984C131.996 12.64 132.044 11.176 132.092 9.592V9.232C132.14 8.704 132.164 8.224 132.164 7.792C132.212 7.312 132.236 6.832 132.236 6.352C132.284 5.392 132.548 4.456 133.028 3.544C133.22 3.16 133.412 2.824 133.604 2.536C133.844 2.248 134.156 2.008 134.54 1.816C135.26 1.384 136.004 1.168 136.772 1.168C137.156 1.168 137.444 1.192 137.636 1.24V1.168C138.5 1.168 139.196 1.168 139.724 1.168C140.252 1.168 140.756 1.168 141.236 1.168C141.764 1.168 142.316 1.168 142.892 1.168C143.468 1.12 144.26 1.096 145.268 1.096C147.188 1.048 149.012 1.024 150.74 1.024C152.468 1.024 154.244 1.048 156.068 1.096H156.356C156.884 1.144 157.436 1.168 158.012 1.168C158.588 1.168 159.14 1.192 159.668 1.24C160.196 1.24 160.724 1.312 161.252 1.456C161.78 1.552 162.308 1.696 162.836 1.888C163.652 2.128 164.324 2.536 164.852 3.112C165.284 3.784 165.5 4.456 165.5 5.128C165.5 5.416 165.5 5.704 165.5 5.992C165.5 6.232 165.452 6.472 165.356 6.712C165.308 7.192 165.02 7.696 164.492 8.224C164.3 8.32 164.084 8.44 163.844 8.584C163.652 8.728 163.412 8.848 163.124 8.944C162.836 9.04 162.524 9.112 162.188 9.16C161.9 9.16 161.612 9.184 161.324 9.232C160.94 9.328 160.58 9.376 160.244 9.376C159.956 9.376 159.62 9.376 159.236 9.376H155.996L141.596 9.448V9.664ZM181.111 9.664L180.967 20.968H183.847C185.815 20.92 187.567 20.896 189.103 20.896C190.639 20.896 192.343 20.92 194.215 20.968H194.575C195.151 20.968 195.703 20.992 196.231 21.04C196.807 21.04 197.359 21.04 197.887 21.04C198.463 21.088 199.015 21.184 199.543 21.328C200.071 21.424 200.599 21.544 201.127 21.688C201.943 21.976 202.615 22.408 203.143 22.984C203.623 23.608 203.863 24.304 203.863 25.072C203.863 25.312 203.863 25.6 203.863 25.936C203.863 26.224 203.815 26.488 203.719 26.728C203.623 27.256 203.311 27.736 202.783 28.168C202.543 28.504 202.087 28.744 201.415 28.888C200.791 29.08 200.167 29.2 199.543 29.248C198.871 29.392 198.199 29.464 197.527 29.464H194.143L180.823 29.536L180.679 43.648L195.007 43.792H198.391C198.775 43.792 199.135 43.792 199.471 43.792C199.807 43.792 200.119 43.816 200.407 43.864C200.791 43.96 201.127 44.032 201.415 44.08C201.751 44.08 202.063 44.128 202.351 44.224C202.927 44.416 203.407 44.68 203.791 45.016C204.271 45.496 204.583 46 204.727 46.528C204.775 46.768 204.799 47.032 204.799 47.32C204.847 47.56 204.847 47.824 204.799 48.112C204.799 48.88 204.559 49.576 204.079 50.2C203.503 50.872 202.831 51.304 202.063 51.496C201.055 51.928 199.951 52.144 198.751 52.144C198.223 52.192 197.671 52.216 197.095 52.216C196.519 52.216 195.967 52.24 195.439 52.288H195.007C191.263 52.384 187.375 52.384 183.343 52.288C182.383 52.288 181.615 52.264 181.039 52.216C180.463 52.216 179.935 52.216 179.455 52.216C179.023 52.216 178.567 52.216 178.087 52.216C177.607 52.216 176.983 52.216 176.215 52.216C175.111 52.312 174.199 52.12 173.479 51.64C172.951 51.304 172.543 50.848 172.255 50.272C172.111 50.128 172.039 49.984 172.039 49.84C171.991 49.744 171.943 49.672 171.895 49.624C171.847 49.576 171.799 49.504 171.751 49.408C171.655 49.168 171.583 48.928 171.535 48.688C171.487 48.4 171.463 48.136 171.463 47.896C171.415 47.656 171.367 47.416 171.319 47.176C171.319 46.936 171.295 46.696 171.247 46.456V45.304C171.247 45.112 171.247 44.92 171.247 44.728C171.295 44.536 171.319 44.344 171.319 44.152V38.536L171.463 28.168V18.592C171.463 16.864 171.463 15.328 171.463 13.984C171.511 12.64 171.559 11.176 171.607 9.592V9.232C171.655 8.704 171.679 8.224 171.679 7.792C171.727 7.312 171.751 6.832 171.751 6.352C171.799 5.392 172.063 4.456 172.543 3.544C172.735 3.16 172.927 2.824 173.119 2.536C173.359 2.248 173.671 2.008 174.055 1.816C174.775 1.384 175.519 1.168 176.287 1.168C176.671 1.168 176.959 1.192 177.151 1.24V1.168C178.015 1.168 178.711 1.168 179.239 1.168C179.767 1.168 180.271 1.168 180.751 1.168C181.279 1.168 181.831 1.168 182.407 1.168C182.983 1.12 183.775 1.096 184.783 1.096C186.703 1.048 188.527 1.024 190.255 1.024C191.983 1.024 193.759 1.048 195.583 1.096H195.871C196.399 1.144 196.951 1.168 197.527 1.168C198.103 1.168 198.655 1.192 199.183 1.24C199.711 1.24 200.239 1.312 200.767 1.456C201.295 1.552 201.823 1.696 202.351 1.888C203.167 2.128 203.839 2.536 204.367 3.112C204.799 3.784 205.015 4.456 205.015 5.128C205.015 5.416 205.015 5.704 205.015 5.992C205.015 6.232 204.967 6.472 204.871 6.712C204.823 7.192 204.535 7.696 204.007 8.224C203.815 8.32 203.599 8.44 203.359 8.584C203.167 8.728 202.927 8.848 202.639 8.944C202.351 9.04 202.039 9.112 201.703 9.16C201.415 9.16 201.127 9.184 200.839 9.232C200.455 9.328 200.095 9.376 199.759 9.376C199.471 9.376 199.135 9.376 198.751 9.376H195.511L181.111 9.448V9.664Z" fill="#005998"/>
      <path d="M248.851 34.864C248.851 36.304 248.779 37.768 248.635 39.256C248.491 40.696 248.203 42.112 247.771 43.504C247.339 44.848 246.691 46.144 245.827 47.392C244.963 48.592 243.787 49.648 242.299 50.56C241.579 51.04 240.715 51.448 239.707 51.784C238.747 52.072 237.715 52.312 236.611 52.504C235.555 52.744 234.499 52.888 233.443 52.936C232.387 53.032 231.403 53.056 230.491 53.008C226.171 52.864 222.667 51.832 219.979 49.912C217.339 47.944 215.299 45.52 213.859 42.64C212.467 39.76 211.555 36.64 211.123 33.28C210.739 29.872 210.667 26.632 210.907 23.56C211.051 21.736 211.363 19.768 211.843 17.656C212.371 15.544 213.115 13.504 214.075 11.536C215.083 9.568 216.307 7.792 217.747 6.208C219.235 4.624 220.987 3.424 223.003 2.608C224.875 1.84 226.915 1.36 229.123 1.168C231.379 0.927998 233.587 0.999999 235.747 1.384C237.955 1.768 239.995 2.464 241.867 3.472C243.787 4.48 245.299 5.824 246.403 7.504C247.171 8.752 247.771 10.264 248.203 12.04C248.635 13.816 248.707 15.52 248.419 17.152C248.179 18.592 247.675 19.6 246.907 20.176C246.139 20.704 245.299 20.92 244.387 20.824C243.475 20.68 242.587 20.296 241.723 19.672C240.907 19 240.355 18.16 240.067 17.152C239.731 16.048 239.323 15.04 238.843 14.128C238.363 13.168 237.619 12.376 236.611 11.752C235.459 11.032 234.235 10.624 232.939 10.528C231.691 10.432 230.467 10.576 229.267 10.96C228.115 11.344 227.011 11.944 225.955 12.76C224.947 13.576 224.107 14.512 223.435 15.568C222.619 16.768 221.995 18.088 221.563 19.528C221.131 20.92 220.819 22.384 220.627 23.92C220.435 25.408 220.363 26.92 220.411 28.456C220.507 29.944 220.699 31.384 220.987 32.776C221.515 35.128 222.331 37.336 223.435 39.4C223.867 40.168 224.443 40.864 225.163 41.488C225.931 42.064 226.771 42.544 227.683 42.928C228.595 43.264 229.555 43.48 230.563 43.576C231.571 43.672 232.531 43.6 233.443 43.36C234.739 43.024 235.795 42.592 236.611 42.064C237.427 41.488 238.075 40.816 238.555 40.048C239.035 39.28 239.347 38.44 239.491 37.528C239.683 36.616 239.779 35.656 239.779 34.648V34.576C239.155 34.576 238.603 34.576 238.123 34.576C237.643 34.528 237.283 34.504 237.043 34.504C235.987 34.504 234.955 34.312 233.947 33.928C233.083 33.64 232.435 33.184 232.003 32.56C231.523 32.032 231.283 31.384 231.283 30.616C231.283 30.328 231.283 30.064 231.283 29.824C231.331 29.536 231.379 29.248 231.427 28.96C231.571 28.576 231.883 28.096 232.363 27.52C232.651 27.28 233.107 27.088 233.731 26.944C234.019 26.848 234.307 26.776 234.595 26.728C234.883 26.632 235.219 26.56 235.603 26.512C235.891 26.464 236.203 26.44 236.539 26.44C236.875 26.44 237.211 26.44 237.547 26.44H244.099C244.627 26.392 245.227 26.464 245.899 26.656C246.619 26.8 247.171 27.04 247.555 27.376C247.699 27.568 247.843 27.76 247.987 27.952C248.131 28.144 248.251 28.36 248.347 28.6C248.539 29.128 248.659 29.656 248.707 30.184C248.755 30.472 248.779 30.784 248.779 31.12C248.827 31.408 248.851 31.672 248.851 31.912V34.864Z" fill="#CE293B"/>
      <path fill-rule="evenodd" clip-rule="evenodd" d="M258.422 16.3942L265.264 6.13115L266.974 7.27192L260.132 17.5349L258.422 16.3942ZM260.987 18.1053L267.829 7.8423L269.539 8.98306L262.697 19.2461L260.987 18.1053ZM263.552 19.8165L270.394 9.55344L272.104 10.6942L265.262 20.9572L263.552 19.8165Z" fill="black"/>
      <path fill-rule="evenodd" clip-rule="evenodd" d="M296.042 41.4912L302.885 31.2282L304.595 32.369L297.752 42.632L296.042 41.4912ZM298.607 43.2024L305.45 32.9393L307.159 34.0801L300.317 44.3431L298.607 43.2024ZM301.172 44.9135L308.014 34.6505L309.724 35.7913L302.882 46.0543L301.172 44.9135Z" fill="black"/>
      <path fill-rule="evenodd" clip-rule="evenodd" d="M298.607 35.7894L307.157 41.4932Z" fill="black"/>
      <path d="M298.607 35.7894L307.157 41.4932" stroke="white" stroke-width="1.25"/>
      <path fill-rule="evenodd" clip-rule="evenodd" d="M273.812 19.2483C275.627 16.5264 278.449 14.6371 281.656 13.996C284.863 13.3549 288.194 14.0146 290.915 15.8299C293.636 17.6452 295.525 20.4674 296.166 23.6757C296.807 26.884 296.147 30.2155 294.332 32.9374L273.812 19.2483Z" fill="#CD2E3A"/>
      <path fill-rule="evenodd" clip-rule="evenodd" d="M273.812 19.2483C271.997 21.9703 271.338 25.3018 271.978 28.5101C272.619 31.7184 274.508 34.5406 277.229 36.3559C279.95 38.1712 283.281 38.8309 286.488 38.1898C289.696 37.5487 292.517 35.6594 294.332 32.9375C295.239 31.5765 295.569 29.9108 295.248 28.3066C294.928 26.7025 293.983 25.2913 292.623 24.3837C291.262 23.4761 289.597 23.1462 287.993 23.4668C286.39 23.7873 284.979 24.732 284.072 26.0929L273.812 19.2483Z" fill="#0047A0"/>
      <path d="M284.072 26.0931C285.961 23.259 285.196 19.4294 282.363 17.5393C279.53 15.6492 275.701 16.4144 273.812 19.2485C271.922 22.0826 272.687 25.9122 275.521 27.8023C278.354 29.6924 282.182 28.9271 284.072 26.0931Z" fill="#CD2E3A"/>
      <path fill-rule="evenodd" clip-rule="evenodd" d="M265.292 46.0583L258.449 35.7953L260.159 34.6545L267.002 44.9175L265.292 46.0583ZM267.857 44.3471L261.014 34.0841L262.724 32.9434L269.567 43.2064L267.857 44.3471ZM270.422 42.636L263.579 32.373L265.289 31.2322L272.132 41.4952L270.422 42.636Z" fill="black"/>
      <path fill-rule="evenodd" clip-rule="evenodd" d="M302.912 20.9617L296.069 10.6987L297.779 9.55789L304.622 19.8209L302.912 20.9617ZM305.477 19.2505L298.634 8.98751L300.344 7.84675L307.187 18.1098L305.477 19.2505ZM308.042 17.5394L301.199 7.27637L302.909 6.1356L309.752 16.3986L308.042 17.5394Z" fill="black"/>
      <path fill-rule="evenodd" clip-rule="evenodd" d="M264.008 39.5009L266.573 37.7897ZM298.635 16.4004L301.628 14.4041ZM304.193 12.6929L306.758 10.9818Z" fill="black"/>
      <path d="M264.008 39.5009L266.573 37.7897M298.635 16.4004L301.628 14.4041M304.193 12.6929L306.758 10.9818" stroke="white" stroke-width="1.25"/>
      </svg>
