<svg viewBox="0 0 134 40"
     xmlns="http://www.w3.org/2000/svg">
    <path d="M18.272 24.624C18.5493 25.2427 18.56 25.8507 18.304 26.448C18.048 27.024 17.6427 27.5573 17.088 28.048C16.5333 28.5387 15.8933 28.9653 15.168 29.328C14.464 29.6907 13.792 29.9467 13.152 30.096C12.448 30.2453 11.7013 30.3093 10.912 30.288C10.144 30.288 9.36533 30.192 8.576 30C7.808 29.8293 7.05067 29.5733 6.304 29.232C5.57867 28.8693 4.90667 28.432 4.288 27.92C3.54133 27.3013 2.95467 26.5653 2.528 25.712C2.12267 24.8373 1.824 23.9093 1.632 22.928C1.44 21.9467 1.33333 20.9653 1.312 19.984C1.312 18.9813 1.344 18.0427 1.408 17.168C1.472 16.3787 1.632 15.5573 1.888 14.704C2.144 13.8507 2.496 13.0187 2.944 12.208C3.41333 11.376 3.968 10.608 4.608 9.904C5.26933 9.2 6.03733 8.60267 6.912 8.112C7.57333 7.728 8.30933 7.472 9.12 7.344C9.952 7.19467 10.784 7.16267 11.616 7.248C12.4693 7.312 13.2693 7.49333 14.016 7.792C14.784 8.06933 15.4347 8.45333 15.968 8.944C16.3093 9.24266 16.6613 9.65867 17.024 10.192C17.408 10.7253 17.6853 11.2693 17.856 11.824C18.0267 12.3787 18.0267 12.9013 17.856 13.392C17.7067 13.8613 17.28 14.1813 16.576 14.352C16.2773 14.4373 16.0107 14.4587 15.776 14.416C15.5413 14.352 15.328 14.256 15.136 14.128C14.944 13.9787 14.7627 13.808 14.592 13.616C14.4213 13.424 14.2613 13.232 14.112 13.04C13.6 12.4213 13.0027 12.0053 12.32 11.792C11.6373 11.5573 10.9547 11.504 10.272 11.632C9.61067 11.7387 8.98133 12.016 8.384 12.464C7.808 12.8907 7.36 13.4453 7.04 14.128C6.69867 14.8533 6.42133 15.6533 6.208 16.528C6.016 17.3813 5.90933 18.256 5.888 19.152C5.86667 20.0267 5.94133 20.88 6.112 21.712C6.304 22.544 6.624 23.28 7.072 23.92C7.41333 24.432 7.82933 24.848 8.32 25.168C8.832 25.488 9.376 25.712 9.952 25.84C10.528 25.968 11.104 25.9893 11.68 25.904C12.2773 25.8187 12.8533 25.6267 13.408 25.328C13.5787 25.2427 13.76 25.1253 13.952 24.976C14.1653 24.8053 14.3787 24.6347 14.592 24.464C14.8053 24.2933 15.0187 24.1333 15.232 23.984C15.4667 23.8347 15.712 23.728 15.968 23.664C16.352 23.536 16.768 23.5467 17.216 23.696C17.6853 23.8453 18.0373 24.1547 18.272 24.624ZM25.7565 8.112C27.1858 7.57867 28.4765 7.344 29.6285 7.408C30.8018 7.472 31.8472 7.77067 32.7645 8.304C33.6818 8.816 34.4605 9.50933 35.1005 10.384C35.7618 11.2587 36.2952 12.24 36.7005 13.328C37.0205 14.1387 37.2658 14.992 37.4365 15.888C37.6072 16.784 37.7032 17.68 37.7245 18.576C37.7672 19.4507 37.7352 20.3147 37.6285 21.168C37.5432 22.0213 37.3938 22.8107 37.1805 23.536C37.0525 24.0267 36.9032 24.4747 36.7325 24.88C36.5618 25.2853 36.3592 25.6907 36.1245 26.096C35.5912 27.0133 34.8978 27.76 34.0445 28.336C33.2125 28.912 32.2952 29.3173 31.2925 29.552C30.6098 29.7227 29.9058 29.808 29.1805 29.808C28.4552 29.7867 27.7405 29.6907 27.0365 29.52C26.3325 29.328 25.6498 29.0613 24.9885 28.72C24.3485 28.3573 23.7618 27.9093 23.2285 27.376C22.5672 26.736 22.0232 26 21.5965 25.168C21.1698 24.3147 20.8392 23.4293 20.6045 22.512C20.3698 21.5733 20.2205 20.6347 20.1565 19.696C20.0925 18.7573 20.0925 17.8613 20.1565 17.008C20.2205 16.2187 20.3698 15.376 20.6045 14.48C20.8605 13.584 21.2232 12.72 21.6925 11.888C22.1618 11.056 22.7272 10.3093 23.3885 9.648C24.0712 8.96533 24.8605 8.45333 25.7565 8.112ZM33.2445 21.808C33.5005 20.8053 33.6072 19.6747 33.5645 18.416C33.5218 17.1573 33.3192 15.9733 32.9565 14.864C32.7218 14.1813 32.4232 13.584 32.0605 13.072C31.7192 12.5387 31.3032 12.1333 30.8125 11.856C30.3432 11.5787 29.7885 11.44 29.1485 11.44C28.5085 11.44 27.7938 11.632 27.0045 12.016C26.5352 12.2507 26.1298 12.5707 25.7885 12.976C25.4685 13.3813 25.2018 13.84 24.9885 14.352C24.7965 14.864 24.6365 15.3973 24.5085 15.952C24.4018 16.5067 24.3378 17.04 24.3165 17.552C24.2738 18.1067 24.2632 18.6933 24.2845 19.312C24.3058 19.9093 24.3698 20.5173 24.4765 21.136C24.6045 21.7333 24.7752 22.3093 24.9885 22.864C25.2018 23.3973 25.4898 23.8773 25.8525 24.304C26.4072 24.944 27.0472 25.392 27.7725 25.648C28.5192 25.8827 29.2552 25.9147 29.9805 25.744C31.1538 25.488 32.0498 24.7093 32.6685 23.408C32.9245 22.9387 33.1165 22.4053 33.2445 21.808ZM56.8545 28.592C56.8758 28.8053 56.8545 29.008 56.7905 29.2C56.7478 29.328 56.6838 29.4347 56.5985 29.52C56.5345 29.6053 56.4492 29.6907 56.3425 29.776C56.1505 29.904 55.9158 30.0213 55.6385 30.128C55.4678 30.1707 55.2972 30.2027 55.1265 30.224C54.9772 30.2667 54.8172 30.2667 54.6465 30.224C54.3052 30.2027 54.0065 30.0747 53.7505 29.84C53.3878 29.5413 53.0892 29.2107 52.8545 28.848C52.7478 28.6773 52.6305 28.4853 52.5025 28.272C52.3745 28.0587 52.2572 27.8347 52.1505 27.6L48.5985 20.848C48.4278 20.848 48.2572 20.8587 48.0865 20.88C47.9158 20.88 47.7452 20.8907 47.5745 20.912C47.1265 20.9547 46.6998 20.9653 46.2945 20.944C45.9105 20.9227 45.5052 20.9227 45.0785 20.944H44.4705V26.736C44.4705 26.9067 44.4598 27.0667 44.4385 27.216C44.4385 27.3653 44.4385 27.5253 44.4385 27.696C44.4385 27.8027 44.4278 27.9413 44.4065 28.112C44.4065 28.2827 44.3958 28.4427 44.3745 28.592C44.3318 28.8267 44.2358 29.072 44.0865 29.328C43.9372 29.5627 43.7345 29.7653 43.4785 29.936C43.0305 30.2133 42.4865 30.288 41.8465 30.16C41.5692 30.096 41.3025 29.9893 41.0465 29.84C40.9612 29.776 40.8865 29.7013 40.8225 29.616C40.7585 29.5093 40.7052 29.4027 40.6625 29.296C40.6198 29.1893 40.5772 29.0827 40.5345 28.976C40.5132 28.848 40.4812 28.7307 40.4385 28.624C40.3745 28.4107 40.3425 28.208 40.3425 28.016V9.84C40.3425 9.712 40.3425 9.584 40.3425 9.456C40.3638 9.30667 40.3852 9.17867 40.4065 9.072C40.4278 8.83733 40.5025 8.60267 40.6305 8.368C40.6945 8.112 40.8012 7.93067 40.9505 7.824C41.0785 7.696 41.2705 7.58933 41.5265 7.504C41.8038 7.39733 42.1985 7.35467 42.7105 7.376C43.6705 7.39733 44.6198 7.408 45.5585 7.408C46.4972 7.408 47.4358 7.42933 48.3745 7.472C48.9932 7.51467 49.6438 7.58933 50.3265 7.696C51.0305 7.78133 51.6812 7.94133 52.2785 8.176C52.6625 8.32533 53.0145 8.47467 53.3345 8.624C53.7398 8.85867 54.0598 9.08267 54.2945 9.296C55.0412 9.97867 55.6065 10.8 55.9905 11.76C56.3745 12.72 56.5665 13.6907 56.5665 14.672C56.5665 15.824 56.2892 16.88 55.7345 17.84C55.2012 18.8 54.3372 19.5147 53.1425 19.984C53.0998 20.0267 53.0358 20.0587 52.9505 20.08C52.8865 20.08 52.8332 20.0907 52.7905 20.112L55.7345 26.032L56.0225 26.544C56.0652 26.6293 56.1185 26.7253 56.1825 26.832C56.2465 26.9387 56.2998 27.0453 56.3425 27.152C56.4065 27.2587 56.4598 27.376 56.5025 27.504C56.5665 27.632 56.6305 27.7493 56.6945 27.856C56.7585 28.1547 56.8118 28.4 56.8545 28.592ZM48.8545 17.2C49.2385 17.2 49.6012 17.136 49.9425 17.008C50.3052 16.8587 50.6252 16.6667 50.9025 16.432C51.2012 16.1973 51.4465 15.9307 51.6385 15.632C51.8305 15.312 51.9372 14.9707 51.9585 14.608C52.0438 13.5413 51.7665 12.752 51.1265 12.24C50.4865 11.7067 49.6438 11.4187 48.5985 11.376C47.9798 11.3333 47.2972 11.312 46.5505 11.312C45.8252 11.312 45.1318 11.312 44.4705 11.312C44.4918 12.1867 44.4918 13.0827 44.4705 14C44.4705 14.896 44.4705 15.9627 44.4705 17.2H48.8545ZM63.8203 11.184L63.7563 16.208H65.0363C65.9109 16.1867 66.6896 16.176 67.3723 16.176C68.0549 16.176 68.8123 16.1867 69.6443 16.208H69.8043C70.0603 16.208 70.3056 16.2187 70.5403 16.24C70.7963 16.24 71.0416 16.24 71.2763 16.24C71.5323 16.2613 71.7776 16.304 72.0123 16.368C72.2469 16.4107 72.4816 16.464 72.7163 16.528C73.0789 16.656 73.3776 16.848 73.6123 17.104C73.8256 17.3813 73.9323 17.6907 73.9323 18.032C73.9323 18.1387 73.9323 18.2667 73.9323 18.416C73.9323 18.544 73.9109 18.6613 73.8683 18.768C73.8256 19.0027 73.6869 19.216 73.4523 19.408C73.3456 19.5573 73.1429 19.664 72.8443 19.728C72.5669 19.8133 72.2896 19.8667 72.0123 19.888C71.7136 19.952 71.4149 19.984 71.1163 19.984H69.6123L63.6923 20.016L63.6283 26.288L69.9963 26.352H71.5003C71.6709 26.352 71.8309 26.352 71.9803 26.352C72.1296 26.352 72.2683 26.3627 72.3963 26.384C72.5669 26.4267 72.7163 26.4587 72.8443 26.48C72.9936 26.48 73.1323 26.5013 73.2603 26.544C73.5163 26.6293 73.7296 26.7467 73.9003 26.896C74.1136 27.1093 74.2523 27.3333 74.3162 27.568C74.3376 27.6747 74.3483 27.792 74.3483 27.92C74.3696 28.0267 74.3696 28.144 74.3483 28.272C74.3483 28.6133 74.2416 28.9227 74.0283 29.2C73.7723 29.4987 73.4736 29.6907 73.1323 29.776C72.6843 29.968 72.1936 30.064 71.6603 30.064C71.4256 30.0853 71.1803 30.096 70.9243 30.096C70.6683 30.096 70.4229 30.1067 70.1883 30.128H69.9963C68.3323 30.1707 66.6043 30.1707 64.8123 30.128C64.3856 30.128 64.0443 30.1173 63.7883 30.096C63.5323 30.096 63.2976 30.096 63.0843 30.096C62.8923 30.096 62.6896 30.096 62.4763 30.096C62.2629 30.096 61.9856 30.096 61.6443 30.096C61.1536 30.1387 60.7483 30.0533 60.4283 29.84C60.1936 29.6907 60.0123 29.488 59.8843 29.232C59.8203 29.168 59.7883 29.104 59.7883 29.04C59.7669 28.9973 59.7456 28.9653 59.7243 28.944C59.7029 28.9227 59.6816 28.8907 59.6603 28.848C59.6176 28.7413 59.5856 28.6347 59.5643 28.528C59.5429 28.4 59.5323 28.2827 59.5323 28.176C59.5109 28.0693 59.4896 27.9627 59.4683 27.856C59.4683 27.7493 59.4576 27.6427 59.4363 27.536V27.024C59.4363 26.9387 59.4363 26.8533 59.4363 26.768C59.4576 26.6827 59.4683 26.5973 59.4683 26.512V24.016L59.5323 19.408V15.152C59.5323 14.384 59.5323 13.7013 59.5323 13.104C59.5536 12.5067 59.5749 11.856 59.5963 11.152V10.992C59.6176 10.7573 59.6283 10.544 59.6283 10.352C59.6496 10.1387 59.6603 9.92533 59.6603 9.712C59.6816 9.28533 59.7989 8.86933 60.0123 8.464C60.0976 8.29333 60.1829 8.144 60.2682 8.016C60.3749 7.888 60.5136 7.78133 60.6843 7.696C61.0043 7.504 61.3349 7.408 61.6763 7.408C61.8469 7.408 61.9749 7.41867 62.0603 7.44V7.408C62.4443 7.408 62.7536 7.408 62.9883 7.408C63.2229 7.408 63.4469 7.408 63.6603 7.408C63.8949 7.408 64.1403 7.408 64.3963 7.408C64.6523 7.38667 65.0043 7.376 65.4523 7.376C66.3056 7.35467 67.1163 7.344 67.8843 7.344C68.6523 7.344 69.4416 7.35467 70.2523 7.376H70.3803C70.6149 7.39733 70.8603 7.408 71.1163 7.408C71.3723 7.408 71.6176 7.41867 71.8523 7.44C72.0869 7.44 72.3216 7.472 72.5563 7.536C72.7909 7.57867 73.0256 7.64267 73.2603 7.728C73.6229 7.83467 73.9216 8.016 74.1562 8.272C74.3483 8.57067 74.4443 8.86933 74.4443 9.168C74.4443 9.296 74.4443 9.424 74.4443 9.552C74.4443 9.65867 74.4229 9.76533 74.3803 9.872C74.3589 10.0853 74.2309 10.3093 73.9963 10.544C73.9109 10.5867 73.8149 10.64 73.7083 10.704C73.6229 10.768 73.5163 10.8213 73.3883 10.864C73.2603 10.9067 73.1216 10.9387 72.9723 10.96C72.8443 10.96 72.7163 10.9707 72.5883 10.992C72.4176 11.0347 72.2576 11.056 72.1083 11.056C71.9803 11.056 71.8309 11.056 71.6603 11.056H70.2203L63.8203 11.088V11.184ZM81.3828 11.184L81.3188 16.208H82.5988C83.4734 16.1867 84.2521 16.176 84.9348 16.176C85.6174 16.176 86.3748 16.1867 87.2068 16.208H87.3668C87.6228 16.208 87.8681 16.2187 88.1028 16.24C88.3588 16.24 88.6041 16.24 88.8388 16.24C89.0948 16.2613 89.3401 16.304 89.5748 16.368C89.8094 16.4107 90.0441 16.464 90.2788 16.528C90.6414 16.656 90.9401 16.848 91.1748 17.104C91.3881 17.3813 91.4948 17.6907 91.4948 18.032C91.4948 18.1387 91.4948 18.2667 91.4948 18.416C91.4948 18.544 91.4734 18.6613 91.4308 18.768C91.3881 19.0027 91.2494 19.216 91.0148 19.408C90.9081 19.5573 90.7054 19.664 90.4068 19.728C90.1294 19.8133 89.8521 19.8667 89.5748 19.888C89.2761 19.952 88.9774 19.984 88.6788 19.984H87.1748L81.2548 20.016L81.1908 26.288L87.5588 26.352H89.0628C89.2334 26.352 89.3934 26.352 89.5428 26.352C89.6921 26.352 89.8308 26.3627 89.9588 26.384C90.1294 26.4267 90.2788 26.4587 90.4068 26.48C90.5561 26.48 90.6948 26.5013 90.8228 26.544C91.0788 26.6293 91.2921 26.7467 91.4628 26.896C91.6761 27.1093 91.8148 27.3333 91.8787 27.568C91.9001 27.6747 91.9108 27.792 91.9108 27.92C91.9321 28.0267 91.9321 28.144 91.9108 28.272C91.9108 28.6133 91.8041 28.9227 91.5908 29.2C91.3348 29.4987 91.0361 29.6907 90.6948 29.776C90.2468 29.968 89.7561 30.064 89.2228 30.064C88.9881 30.0853 88.7428 30.096 88.4868 30.096C88.2308 30.096 87.9854 30.1067 87.7508 30.128H87.5588C85.8948 30.1707 84.1668 30.1707 82.3748 30.128C81.9481 30.128 81.6068 30.1173 81.3508 30.096C81.0948 30.096 80.8601 30.096 80.6468 30.096C80.4548 30.096 80.2521 30.096 80.0388 30.096C79.8254 30.096 79.5481 30.096 79.2068 30.096C78.7161 30.1387 78.3108 30.0533 77.9908 29.84C77.7561 29.6907 77.5748 29.488 77.4468 29.232C77.3828 29.168 77.3508 29.104 77.3508 29.04C77.3294 28.9973 77.3081 28.9653 77.2868 28.944C77.2654 28.9227 77.2441 28.8907 77.2228 28.848C77.1801 28.7413 77.1481 28.6347 77.1268 28.528C77.1054 28.4 77.0948 28.2827 77.0948 28.176C77.0734 28.0693 77.0521 27.9627 77.0308 27.856C77.0308 27.7493 77.0201 27.6427 76.9988 27.536V27.024C76.9988 26.9387 76.9988 26.8533 76.9988 26.768C77.0201 26.6827 77.0308 26.5973 77.0308 26.512V24.016L77.0948 19.408V15.152C77.0948 14.384 77.0948 13.7013 77.0948 13.104C77.1161 12.5067 77.1374 11.856 77.1588 11.152V10.992C77.1801 10.7573 77.1908 10.544 77.1908 10.352C77.2121 10.1387 77.2228 9.92533 77.2228 9.712C77.2441 9.28533 77.3614 8.86933 77.5748 8.464C77.6601 8.29333 77.7454 8.144 77.8307 8.016C77.9374 7.888 78.0761 7.78133 78.2468 7.696C78.5668 7.504 78.8974 7.408 79.2388 7.408C79.4094 7.408 79.5374 7.41867 79.6228 7.44V7.408C80.0068 7.408 80.3161 7.408 80.5508 7.408C80.7854 7.408 81.0094 7.408 81.2228 7.408C81.4574 7.408 81.7028 7.408 81.9588 7.408C82.2148 7.38667 82.5668 7.376 83.0148 7.376C83.8681 7.35467 84.6788 7.344 85.4468 7.344C86.2148 7.344 87.0041 7.35467 87.8148 7.376H87.9428C88.1774 7.39733 88.4228 7.408 88.6788 7.408C88.9348 7.408 89.1801 7.41867 89.4148 7.44C89.6494 7.44 89.8841 7.472 90.1188 7.536C90.3534 7.57867 90.5881 7.64267 90.8228 7.728C91.1854 7.83467 91.4841 8.016 91.7188 8.272C91.9108 8.57067 92.0068 8.86933 92.0068 9.168C92.0068 9.296 92.0068 9.424 92.0068 9.552C92.0068 9.65867 91.9854 9.76533 91.9428 9.872C91.9214 10.0853 91.7934 10.3093 91.5588 10.544C91.4734 10.5867 91.3774 10.64 91.2708 10.704C91.1854 10.768 91.0788 10.8213 90.9508 10.864C90.8228 10.9067 90.6841 10.9387 90.5348 10.96C90.4068 10.96 90.2788 10.9707 90.1508 10.992C89.9801 11.0347 89.8201 11.056 89.6708 11.056C89.5428 11.056 89.3934 11.056 89.2228 11.056H87.7828L81.3828 11.088V11.184Z"
          fill="#005998" />
    <path d="M111.489 22.384C111.489 23.024 111.457 23.6747 111.393 24.336C111.329 24.976 111.201 25.6053 111.009 26.224C110.817 26.8213 110.529 27.3973 110.145 27.952C109.761 28.4853 109.239 28.9547 108.577 29.36C108.257 29.5733 107.873 29.7547 107.425 29.904C106.999 30.032 106.54 30.1387 106.049 30.224C105.58 30.3307 105.111 30.3947 104.641 30.416C104.172 30.4587 103.735 30.4693 103.329 30.448C101.409 30.384 99.8519 29.9253 98.6573 29.072C97.4839 28.1973 96.5773 27.12 95.9373 25.84C95.3186 24.56 94.9133 23.1733 94.7213 21.68C94.5506 20.1653 94.5186 18.7253 94.6253 17.36C94.6893 16.5493 94.8279 15.6747 95.0413 14.736C95.2759 13.7973 95.6066 12.8907 96.0333 12.016C96.4813 11.1413 97.0253 10.352 97.6653 9.648C98.3266 8.944 99.1053 8.41067 100.001 8.048C100.833 7.70667 101.74 7.49333 102.721 7.408C103.724 7.30133 104.705 7.33333 105.665 7.504C106.647 7.67467 107.553 7.984 108.385 8.432C109.239 8.88 109.911 9.47733 110.401 10.224C110.743 10.7787 111.009 11.4507 111.201 12.24C111.393 13.0293 111.425 13.7867 111.297 14.512C111.191 15.152 110.967 15.6 110.625 15.856C110.284 16.0907 109.911 16.1867 109.505 16.144C109.1 16.08 108.705 15.9093 108.321 15.632C107.959 15.3333 107.713 14.96 107.585 14.512C107.436 14.0213 107.255 13.5733 107.041 13.168C106.828 12.7413 106.497 12.3893 106.049 12.112C105.537 11.792 104.993 11.6107 104.417 11.568C103.863 11.5253 103.319 11.5893 102.785 11.76C102.273 11.9307 101.783 12.1973 101.313 12.56C100.865 12.9227 100.492 13.3387 100.193 13.808C99.8306 14.3413 99.5533 14.928 99.3613 15.568C99.1693 16.1867 99.0306 16.8373 98.9453 17.52C98.8599 18.1813 98.8279 18.8533 98.8493 19.536C98.8919 20.1973 98.9773 20.8373 99.1053 21.456C99.3399 22.5013 99.7026 23.4827 100.193 24.4C100.385 24.7413 100.641 25.0507 100.961 25.328C101.303 25.584 101.676 25.7973 102.081 25.968C102.487 26.1173 102.913 26.2133 103.361 26.256C103.809 26.2987 104.236 26.2667 104.641 26.16C105.217 26.0107 105.687 25.8187 106.049 25.584C106.412 25.328 106.7 25.0293 106.913 24.688C107.127 24.3467 107.265 23.9733 107.329 23.568C107.415 23.1627 107.457 22.736 107.457 22.288V22.256C107.18 22.256 106.935 22.256 106.721 22.256C106.508 22.2347 106.348 22.224 106.241 22.224C105.772 22.224 105.313 22.1387 104.865 21.968C104.481 21.84 104.193 21.6373 104.001 21.36C103.788 21.1253 103.681 20.8373 103.681 20.496C103.681 20.368 103.681 20.2507 103.681 20.144C103.703 20.016 103.724 19.888 103.745 19.76C103.809 19.5893 103.948 19.376 104.161 19.12C104.289 19.0133 104.492 18.928 104.769 18.864C104.897 18.8213 105.025 18.7893 105.153 18.768C105.281 18.7253 105.431 18.6933 105.601 18.672C105.729 18.6507 105.868 18.64 106.017 18.64C106.167 18.64 106.316 18.64 106.465 18.64H109.377C109.612 18.6187 109.879 18.6507 110.177 18.736C110.497 18.8 110.743 18.9067 110.913 19.056C110.977 19.1413 111.041 19.2267 111.105 19.312C111.169 19.3973 111.223 19.4933 111.265 19.6C111.351 19.8347 111.404 20.0693 111.425 20.304C111.447 20.432 111.457 20.5707 111.457 20.72C111.479 20.848 111.489 20.9653 111.489 21.072V22.384ZM119.725 8.112C121.155 7.57867 122.445 7.344 123.597 7.408C124.771 7.472 125.816 7.77067 126.733 8.304C127.651 8.816 128.429 9.50933 129.069 10.384C129.731 11.2587 130.264 12.24 130.669 13.328C130.989 14.1387 131.235 14.992 131.405 15.888C131.576 16.784 131.672 17.68 131.693 18.576C131.736 19.4507 131.704 20.3147 131.597 21.168C131.512 22.0213 131.363 22.8107 131.149 23.536C131.021 24.0267 130.872 24.4747 130.701 24.88C130.531 25.2853 130.328 25.6907 130.093 26.096C129.56 27.0133 128.867 27.76 128.013 28.336C127.181 28.912 126.264 29.3173 125.261 29.552C124.579 29.7227 123.875 29.808 123.149 29.808C122.424 29.7867 121.709 29.6907 121.005 29.52C120.301 29.328 119.619 29.0613 118.957 28.72C118.317 28.3573 117.731 27.9093 117.197 27.376C116.536 26.736 115.992 26 115.565 25.168C115.139 24.3147 114.808 23.4293 114.573 22.512C114.339 21.5733 114.189 20.6347 114.125 19.696C114.061 18.7573 114.061 17.8613 114.125 17.008C114.189 16.2187 114.339 15.376 114.573 14.48C114.829 13.584 115.192 12.72 115.661 11.888C116.131 11.056 116.696 10.3093 117.357 9.648C118.04 8.96533 118.829 8.45333 119.725 8.112ZM127.213 21.808C127.469 20.8053 127.576 19.6747 127.533 18.416C127.491 17.1573 127.288 15.9733 126.925 14.864C126.691 14.1813 126.392 13.584 126.029 13.072C125.688 12.5387 125.272 12.1333 124.781 11.856C124.312 11.5787 123.757 11.44 123.117 11.44C122.477 11.44 121.763 11.632 120.973 12.016C120.504 12.2507 120.099 12.5707 119.757 12.976C119.437 13.3813 119.171 13.84 118.957 14.352C118.765 14.864 118.605 15.3973 118.477 15.952C118.371 16.5067 118.307 17.04 118.285 17.552C118.243 18.1067 118.232 18.6933 118.253 19.312C118.275 19.9093 118.339 20.5173 118.445 21.136C118.573 21.7333 118.744 22.3093 118.957 22.864C119.171 23.3973 119.459 23.8773 119.821 24.304C120.376 24.944 121.016 25.392 121.741 25.648C122.488 25.8827 123.224 25.9147 123.949 25.744C125.123 25.488 126.019 24.7093 126.637 23.408C126.893 22.9387 127.085 22.4053 127.213 21.808Z"
          fill="#CE293B" />
</svg>