<svg viewBox="0 0 131 24"
     fill="none"
     xmlns="http://www.w3.org/2000/svg">
    <path d="M17.272 17.624C17.5493 18.2427 17.56 18.8507 17.304 19.448C17.048 20.024 16.6427 20.5573 16.088 21.048C15.5333 21.5387 14.8933 21.9653 14.168 22.328C13.464 22.6907 12.792 22.9467 12.152 23.096C11.448 23.2453 10.7013 23.3093 9.912 23.288C9.144 23.288 8.36533 23.192 7.576 23C6.808 22.8293 6.05067 22.5733 5.304 22.232C4.57867 21.8693 3.90667 21.432 3.288 20.92C2.54133 20.3013 1.95467 19.5653 1.528 18.712C1.12267 17.8373 0.824 16.9093 0.632 15.928C0.44 14.9467 0.333333 13.9653 0.312 12.984C0.312 11.9813 0.344 11.0427 0.408 10.168C0.472 9.37867 0.632 8.55733 0.888 7.704C1.144 6.85067 1.496 6.01867 1.944 5.208C2.41333 4.376 2.968 3.608 3.608 2.904C4.26933 2.2 5.03733 1.60267 5.912 1.112C6.57333 0.727999 7.30933 0.471999 8.12 0.344C8.952 0.194666 9.784 0.162666 10.616 0.247999C11.4693 0.312 12.2693 0.493333 13.016 0.792C13.784 1.06933 14.4347 1.45333 14.968 1.944C15.3093 2.24266 15.6613 2.65867 16.024 3.192C16.408 3.72533 16.6853 4.26933 16.856 4.824C17.0267 5.37867 17.0267 5.90133 16.856 6.392C16.7067 6.86133 16.28 7.18133 15.576 7.352C15.2773 7.43733 15.0107 7.45867 14.776 7.416C14.5413 7.352 14.328 7.256 14.136 7.128C13.944 6.97867 13.7627 6.808 13.592 6.616C13.4213 6.424 13.2613 6.232 13.112 6.04C12.6 5.42133 12.0027 5.00533 11.32 4.792C10.6373 4.55733 9.95467 4.504 9.272 4.632C8.61067 4.73867 7.98133 5.016 7.384 5.464C6.808 5.89067 6.36 6.44533 6.04 7.128C5.69867 7.85333 5.42133 8.65333 5.208 9.528C5.016 10.3813 4.90933 11.256 4.888 12.152C4.86667 13.0267 4.94133 13.88 5.112 14.712C5.304 15.544 5.624 16.28 6.072 16.92C6.41333 17.432 6.82933 17.848 7.32 18.168C7.832 18.488 8.376 18.712 8.952 18.84C9.528 18.968 10.104 18.9893 10.68 18.904C11.2773 18.8187 11.8533 18.6267 12.408 18.328C12.5787 18.2427 12.76 18.1253 12.952 17.976C13.1653 17.8053 13.3787 17.6347 13.592 17.464C13.8053 17.2933 14.0187 17.1333 14.232 16.984C14.4667 16.8347 14.712 16.728 14.968 16.664C15.352 16.536 15.768 16.5467 16.216 16.696C16.6853 16.8453 17.0373 17.1547 17.272 17.624ZM24.7565 1.112C26.1858 0.578665 27.4765 0.343999 28.6285 0.407999C29.8018 0.471999 30.8472 0.770666 31.7645 1.304C32.6818 1.816 33.4605 2.50933 34.1005 3.384C34.7618 4.25867 35.2952 5.24 35.7005 6.328C36.0205 7.13867 36.2658 7.992 36.4365 8.888C36.6072 9.784 36.7032 10.68 36.7245 11.576C36.7672 12.4507 36.7352 13.3147 36.6285 14.168C36.5432 15.0213 36.3938 15.8107 36.1805 16.536C36.0525 17.0267 35.9032 17.4747 35.7325 17.88C35.5618 18.2853 35.3592 18.6907 35.1245 19.096C34.5912 20.0133 33.8978 20.76 33.0445 21.336C32.2125 21.912 31.2952 22.3173 30.2925 22.552C29.6098 22.7227 28.9058 22.808 28.1805 22.808C27.4552 22.7867 26.7405 22.6907 26.0365 22.52C25.3325 22.328 24.6498 22.0613 23.9885 21.72C23.3485 21.3573 22.7618 20.9093 22.2285 20.376C21.5672 19.736 21.0232 19 20.5965 18.168C20.1698 17.3147 19.8392 16.4293 19.6045 15.512C19.3698 14.5733 19.2205 13.6347 19.1565 12.696C19.0925 11.7573 19.0925 10.8613 19.1565 10.008C19.2205 9.21867 19.3698 8.376 19.6045 7.48C19.8605 6.584 20.2232 5.72 20.6925 4.888C21.1618 4.056 21.7272 3.30933 22.3885 2.648C23.0712 1.96533 23.8605 1.45333 24.7565 1.112ZM32.2445 14.808C32.5005 13.8053 32.6072 12.6747 32.5645 11.416C32.5218 10.1573 32.3192 8.97333 31.9565 7.864C31.7218 7.18133 31.4232 6.584 31.0605 6.072C30.7192 5.53867 30.3032 5.13333 29.8125 4.856C29.3432 4.57867 28.7885 4.44 28.1485 4.44C27.5085 4.44 26.7938 4.632 26.0045 5.016C25.5352 5.25067 25.1298 5.57067 24.7885 5.976C24.4685 6.38133 24.2018 6.84 23.9885 7.352C23.7965 7.864 23.6365 8.39733 23.5085 8.952C23.4018 9.50667 23.3378 10.04 23.3165 10.552C23.2738 11.1067 23.2632 11.6933 23.2845 12.312C23.3058 12.9093 23.3698 13.5173 23.4765 14.136C23.6045 14.7333 23.7752 15.3093 23.9885 15.864C24.2018 16.3973 24.4898 16.8773 24.8525 17.304C25.4072 17.944 26.0472 18.392 26.7725 18.648C27.5192 18.8827 28.2552 18.9147 28.9805 18.744C30.1538 18.488 31.0498 17.7093 31.6685 16.408C31.9245 15.9387 32.1165 15.4053 32.2445 14.808ZM55.8545 21.592C55.8758 21.8053 55.8545 22.008 55.7905 22.2C55.7478 22.328 55.6838 22.4347 55.5985 22.52C55.5345 22.6053 55.4492 22.6907 55.3425 22.776C55.1505 22.904 54.9158 23.0213 54.6385 23.128C54.4678 23.1707 54.2972 23.2027 54.1265 23.224C53.9772 23.2667 53.8172 23.2667 53.6465 23.224C53.3052 23.2027 53.0065 23.0747 52.7505 22.84C52.3878 22.5413 52.0892 22.2107 51.8545 21.848C51.7478 21.6773 51.6305 21.4853 51.5025 21.272C51.3745 21.0587 51.2572 20.8347 51.1505 20.6L47.5985 13.848C47.4278 13.848 47.2572 13.8587 47.0865 13.88C46.9158 13.88 46.7452 13.8907 46.5745 13.912C46.1265 13.9547 45.6998 13.9653 45.2945 13.944C44.9105 13.9227 44.5052 13.9227 44.0785 13.944H43.4705V19.736C43.4705 19.9067 43.4598 20.0667 43.4385 20.216C43.4385 20.3653 43.4385 20.5253 43.4385 20.696C43.4385 20.8027 43.4278 20.9413 43.4065 21.112C43.4065 21.2827 43.3958 21.4427 43.3745 21.592C43.3318 21.8267 43.2358 22.072 43.0865 22.328C42.9372 22.5627 42.7345 22.7653 42.4785 22.936C42.0305 23.2133 41.4865 23.288 40.8465 23.16C40.5692 23.096 40.3025 22.9893 40.0465 22.84C39.9612 22.776 39.8865 22.7013 39.8225 22.616C39.7585 22.5093 39.7052 22.4027 39.6625 22.296C39.6198 22.1893 39.5772 22.0827 39.5345 21.976C39.5132 21.848 39.4812 21.7307 39.4385 21.624C39.3745 21.4107 39.3425 21.208 39.3425 21.016V2.84C39.3425 2.712 39.3425 2.584 39.3425 2.456C39.3638 2.30667 39.3852 2.17867 39.4065 2.072C39.4278 1.83733 39.5025 1.60267 39.6305 1.368C39.6945 1.112 39.8012 0.930666 39.9505 0.823999C40.0785 0.695999 40.2705 0.589332 40.5265 0.504C40.8038 0.397333 41.1985 0.354666 41.7105 0.375999C42.6705 0.397333 43.6198 0.407999 44.5585 0.407999C45.4972 0.407999 46.4358 0.429332 47.3745 0.471998C47.9932 0.514666 48.6438 0.589333 49.3265 0.695999C50.0305 0.781333 50.6812 0.941332 51.2785 1.176C51.6625 1.32533 52.0145 1.47467 52.3345 1.624C52.7398 1.85867 53.0598 2.08267 53.2945 2.296C54.0412 2.97867 54.6065 3.8 54.9905 4.76C55.3745 5.72 55.5665 6.69067 55.5665 7.672C55.5665 8.824 55.2892 9.88 54.7345 10.84C54.2012 11.8 53.3372 12.5147 52.1425 12.984C52.0998 13.0267 52.0358 13.0587 51.9505 13.08C51.8865 13.08 51.8332 13.0907 51.7905 13.112L54.7345 19.032L55.0225 19.544C55.0652 19.6293 55.1185 19.7253 55.1825 19.832C55.2465 19.9387 55.2998 20.0453 55.3425 20.152C55.4065 20.2587 55.4598 20.376 55.5025 20.504C55.5665 20.632 55.6305 20.7493 55.6945 20.856C55.7585 21.1547 55.8118 21.4 55.8545 21.592ZM47.8545 10.2C48.2385 10.2 48.6012 10.136 48.9425 10.008C49.3052 9.85867 49.6252 9.66667 49.9025 9.432C50.2012 9.19733 50.4465 8.93067 50.6385 8.632C50.8305 8.312 50.9372 7.97067 50.9585 7.608C51.0438 6.54133 50.7665 5.752 50.1265 5.24C49.4865 4.70667 48.6438 4.41867 47.5985 4.376C46.9798 4.33333 46.2972 4.312 45.5505 4.312C44.8252 4.312 44.1318 4.312 43.4705 4.312C43.4918 5.18667 43.4918 6.08267 43.4705 7C43.4705 7.896 43.4705 8.96267 43.4705 10.2H47.8545ZM62.8203 4.184L62.7563 9.208H64.0363C64.9109 9.18667 65.6896 9.176 66.3723 9.176C67.0549 9.176 67.8123 9.18667 68.6443 9.208H68.8043C69.0603 9.208 69.3056 9.21867 69.5403 9.24C69.7963 9.24 70.0416 9.24 70.2763 9.24C70.5323 9.26133 70.7776 9.304 71.0123 9.368C71.2469 9.41067 71.4816 9.464 71.7163 9.528C72.0789 9.656 72.3776 9.848 72.6123 10.104C72.8256 10.3813 72.9323 10.6907 72.9323 11.032C72.9323 11.1387 72.9323 11.2667 72.9323 11.416C72.9323 11.544 72.9109 11.6613 72.8683 11.768C72.8256 12.0027 72.6869 12.216 72.4523 12.408C72.3456 12.5573 72.1429 12.664 71.8443 12.728C71.5669 12.8133 71.2896 12.8667 71.0123 12.888C70.7136 12.952 70.4149 12.984 70.1163 12.984H68.6123L62.6923 13.016L62.6283 19.288L68.9963 19.352H70.5003C70.6709 19.352 70.8309 19.352 70.9803 19.352C71.1296 19.352 71.2683 19.3627 71.3963 19.384C71.5669 19.4267 71.7163 19.4587 71.8443 19.48C71.9936 19.48 72.1323 19.5013 72.2603 19.544C72.5163 19.6293 72.7296 19.7467 72.9003 19.896C73.1136 20.1093 73.2523 20.3333 73.3162 20.568C73.3376 20.6747 73.3483 20.792 73.3483 20.92C73.3696 21.0267 73.3696 21.144 73.3483 21.272C73.3483 21.6133 73.2416 21.9227 73.0283 22.2C72.7723 22.4987 72.4736 22.6907 72.1323 22.776C71.6843 22.968 71.1936 23.064 70.6603 23.064C70.4256 23.0853 70.1803 23.096 69.9243 23.096C69.6683 23.096 69.4229 23.1067 69.1883 23.128H68.9963C67.3323 23.1707 65.6043 23.1707 63.8123 23.128C63.3856 23.128 63.0443 23.1173 62.7883 23.096C62.5323 23.096 62.2976 23.096 62.0843 23.096C61.8923 23.096 61.6896 23.096 61.4763 23.096C61.2629 23.096 60.9856 23.096 60.6443 23.096C60.1536 23.1387 59.7483 23.0533 59.4283 22.84C59.1936 22.6907 59.0123 22.488 58.8843 22.232C58.8203 22.168 58.7883 22.104 58.7883 22.04C58.7669 21.9973 58.7456 21.9653 58.7243 21.944C58.7029 21.9227 58.6816 21.8907 58.6603 21.848C58.6176 21.7413 58.5856 21.6347 58.5643 21.528C58.5429 21.4 58.5323 21.2827 58.5323 21.176C58.5109 21.0693 58.4896 20.9627 58.4683 20.856C58.4683 20.7493 58.4576 20.6427 58.4363 20.536V20.024C58.4363 19.9387 58.4363 19.8533 58.4363 19.768C58.4576 19.6827 58.4683 19.5973 58.4683 19.512V17.016L58.5323 12.408V8.152C58.5323 7.384 58.5323 6.70133 58.5323 6.104C58.5536 5.50667 58.5749 4.856 58.5963 4.152V3.992C58.6176 3.75733 58.6283 3.544 58.6283 3.352C58.6496 3.13867 58.6603 2.92533 58.6603 2.712C58.6816 2.28533 58.7989 1.86933 59.0123 1.464C59.0976 1.29333 59.1829 1.144 59.2682 1.016C59.3749 0.887999 59.5136 0.781333 59.6843 0.695999C60.0043 0.503999 60.3349 0.407999 60.6763 0.407999C60.8469 0.407999 60.9749 0.418666 61.0603 0.439999V0.407999C61.4443 0.407999 61.7536 0.407999 61.9883 0.407999C62.2229 0.407999 62.4469 0.407999 62.6603 0.407999C62.8949 0.407999 63.1403 0.407999 63.3963 0.407999C63.6523 0.386666 64.0043 0.375999 64.4523 0.375999C65.3056 0.354666 66.1163 0.344 66.8843 0.344C67.6523 0.344 68.4416 0.354666 69.2523 0.375999H69.3803C69.6149 0.397333 69.8603 0.407999 70.1163 0.407999C70.3723 0.407999 70.6176 0.418666 70.8523 0.439999C71.0869 0.439999 71.3216 0.471999 71.5563 0.535999C71.7909 0.578665 72.0256 0.642665 72.2603 0.727999C72.6229 0.834665 72.9216 1.016 73.1562 1.272C73.3483 1.57067 73.4443 1.86933 73.4443 2.168C73.4443 2.296 73.4443 2.424 73.4443 2.552C73.4443 2.65867 73.4229 2.76533 73.3803 2.872C73.3589 3.08533 73.2309 3.30933 72.9963 3.544C72.9109 3.58667 72.8149 3.64 72.7083 3.704C72.6229 3.768 72.5163 3.82133 72.3883 3.864C72.2603 3.90667 72.1216 3.93867 71.9723 3.96C71.8443 3.96 71.7163 3.97067 71.5883 3.992C71.4176 4.03467 71.2576 4.056 71.1083 4.056C70.9803 4.056 70.8309 4.056 70.6603 4.056H69.2203L62.8203 4.088V4.184ZM80.3828 4.184L80.3188 9.208H81.5988C82.4734 9.18667 83.2521 9.176 83.9348 9.176C84.6174 9.176 85.3748 9.18667 86.2068 9.208H86.3668C86.6228 9.208 86.8681 9.21867 87.1028 9.24C87.3588 9.24 87.6041 9.24 87.8388 9.24C88.0948 9.26133 88.3401 9.304 88.5748 9.368C88.8094 9.41067 89.0441 9.464 89.2788 9.528C89.6414 9.656 89.9401 9.848 90.1748 10.104C90.3881 10.3813 90.4948 10.6907 90.4948 11.032C90.4948 11.1387 90.4948 11.2667 90.4948 11.416C90.4948 11.544 90.4734 11.6613 90.4308 11.768C90.3881 12.0027 90.2494 12.216 90.0148 12.408C89.9081 12.5573 89.7054 12.664 89.4068 12.728C89.1294 12.8133 88.8521 12.8667 88.5748 12.888C88.2761 12.952 87.9774 12.984 87.6788 12.984H86.1748L80.2548 13.016L80.1908 19.288L86.5588 19.352H88.0628C88.2334 19.352 88.3934 19.352 88.5428 19.352C88.6921 19.352 88.8308 19.3627 88.9588 19.384C89.1294 19.4267 89.2788 19.4587 89.4068 19.48C89.5561 19.48 89.6948 19.5013 89.8228 19.544C90.0788 19.6293 90.2921 19.7467 90.4628 19.896C90.6761 20.1093 90.8148 20.3333 90.8787 20.568C90.9001 20.6747 90.9108 20.792 90.9108 20.92C90.9321 21.0267 90.9321 21.144 90.9108 21.272C90.9108 21.6133 90.8041 21.9227 90.5908 22.2C90.3348 22.4987 90.0361 22.6907 89.6948 22.776C89.2468 22.968 88.7561 23.064 88.2228 23.064C87.9881 23.0853 87.7428 23.096 87.4868 23.096C87.2308 23.096 86.9854 23.1067 86.7508 23.128H86.5588C84.8948 23.1707 83.1668 23.1707 81.3748 23.128C80.9481 23.128 80.6068 23.1173 80.3508 23.096C80.0948 23.096 79.8601 23.096 79.6468 23.096C79.4548 23.096 79.2521 23.096 79.0388 23.096C78.8254 23.096 78.5481 23.096 78.2068 23.096C77.7161 23.1387 77.3108 23.0533 76.9908 22.84C76.7561 22.6907 76.5748 22.488 76.4468 22.232C76.3828 22.168 76.3508 22.104 76.3508 22.04C76.3294 21.9973 76.3081 21.9653 76.2868 21.944C76.2654 21.9227 76.2441 21.8907 76.2228 21.848C76.1801 21.7413 76.1481 21.6347 76.1268 21.528C76.1054 21.4 76.0948 21.2827 76.0948 21.176C76.0734 21.0693 76.0521 20.9627 76.0308 20.856C76.0308 20.7493 76.0201 20.6427 75.9988 20.536V20.024C75.9988 19.9387 75.9988 19.8533 75.9988 19.768C76.0201 19.6827 76.0308 19.5973 76.0308 19.512V17.016L76.0948 12.408V8.152C76.0948 7.384 76.0948 6.70133 76.0948 6.104C76.1161 5.50667 76.1374 4.856 76.1588 4.152V3.992C76.1801 3.75733 76.1908 3.544 76.1908 3.352C76.2121 3.13867 76.2228 2.92533 76.2228 2.712C76.2441 2.28533 76.3614 1.86933 76.5748 1.464C76.6601 1.29333 76.7454 1.144 76.8307 1.016C76.9374 0.887999 77.0761 0.781333 77.2468 0.695999C77.5668 0.503999 77.8974 0.407999 78.2388 0.407999C78.4094 0.407999 78.5374 0.418666 78.6228 0.439999V0.407999C79.0068 0.407999 79.3161 0.407999 79.5508 0.407999C79.7854 0.407999 80.0094 0.407999 80.2228 0.407999C80.4574 0.407999 80.7028 0.407999 80.9588 0.407999C81.2148 0.386666 81.5668 0.375999 82.0148 0.375999C82.8681 0.354666 83.6788 0.344 84.4468 0.344C85.2148 0.344 86.0041 0.354666 86.8148 0.375999H86.9428C87.1774 0.397333 87.4228 0.407999 87.6788 0.407999C87.9348 0.407999 88.1801 0.418666 88.4148 0.439999C88.6494 0.439999 88.8841 0.471999 89.1188 0.535999C89.3534 0.578665 89.5881 0.642665 89.8228 0.727999C90.1854 0.834665 90.4841 1.016 90.7188 1.272C90.9108 1.57067 91.0068 1.86933 91.0068 2.168C91.0068 2.296 91.0068 2.424 91.0068 2.552C91.0068 2.65867 90.9854 2.76533 90.9428 2.872C90.9214 3.08533 90.7934 3.30933 90.5588 3.544C90.4734 3.58667 90.3774 3.64 90.2708 3.704C90.1854 3.768 90.0788 3.82133 89.9508 3.864C89.8228 3.90667 89.6841 3.93867 89.5348 3.96C89.4068 3.96 89.2788 3.97067 89.1508 3.992C88.9801 4.03467 88.8201 4.056 88.6708 4.056C88.5428 4.056 88.3934 4.056 88.2228 4.056H86.7828L80.3828 4.088V4.184Z"
          fill="#005998" />
    <path d="M110.489 15.384C110.489 16.024 110.457 16.6747 110.393 17.336C110.329 17.976 110.201 18.6053 110.009 19.224C109.817 19.8213 109.529 20.3973 109.145 20.952C108.761 21.4853 108.239 21.9547 107.577 22.36C107.257 22.5733 106.873 22.7547 106.425 22.904C105.999 23.032 105.54 23.1387 105.049 23.224C104.58 23.3307 104.111 23.3947 103.641 23.416C103.172 23.4587 102.735 23.4693 102.329 23.448C100.409 23.384 98.8519 22.9253 97.6573 22.072C96.4839 21.1973 95.5773 20.12 94.9373 18.84C94.3186 17.56 93.9133 16.1733 93.7213 14.68C93.5506 13.1653 93.5186 11.7253 93.6253 10.36C93.6893 9.54933 93.8279 8.67467 94.0413 7.736C94.2759 6.79733 94.6066 5.89067 95.0333 5.016C95.4813 4.14133 96.0253 3.352 96.6653 2.648C97.3266 1.944 98.1053 1.41067 99.0013 1.048C99.8333 0.706666 100.74 0.493333 101.721 0.407999C102.724 0.301332 103.705 0.333333 104.665 0.504C105.647 0.674665 106.553 0.983999 107.385 1.432C108.239 1.88 108.911 2.47733 109.401 3.224C109.743 3.77867 110.009 4.45067 110.201 5.24C110.393 6.02933 110.425 6.78667 110.297 7.512C110.191 8.152 109.967 8.6 109.625 8.856C109.284 9.09067 108.911 9.18667 108.505 9.144C108.1 9.08 107.705 8.90933 107.321 8.632C106.959 8.33333 106.713 7.96 106.585 7.512C106.436 7.02133 106.255 6.57333 106.041 6.168C105.828 5.74133 105.497 5.38933 105.049 5.112C104.537 4.792 103.993 4.61067 103.417 4.568C102.863 4.52533 102.319 4.58933 101.785 4.76C101.273 4.93067 100.783 5.19733 100.313 5.56C99.8653 5.92267 99.4919 6.33867 99.1933 6.808C98.8306 7.34133 98.5533 7.928 98.3613 8.568C98.1693 9.18667 98.0306 9.83733 97.9453 10.52C97.8599 11.1813 97.8279 11.8533 97.8493 12.536C97.8919 13.1973 97.9773 13.8373 98.1053 14.456C98.3399 15.5013 98.7026 16.4827 99.1933 17.4C99.3853 17.7413 99.6413 18.0507 99.9613 18.328C100.303 18.584 100.676 18.7973 101.081 18.968C101.487 19.1173 101.913 19.2133 102.361 19.256C102.809 19.2987 103.236 19.2667 103.641 19.16C104.217 19.0107 104.687 18.8187 105.049 18.584C105.412 18.328 105.7 18.0293 105.913 17.688C106.127 17.3467 106.265 16.9733 106.329 16.568C106.415 16.1627 106.457 15.736 106.457 15.288V15.256C106.18 15.256 105.935 15.256 105.721 15.256C105.508 15.2347 105.348 15.224 105.241 15.224C104.772 15.224 104.313 15.1387 103.865 14.968C103.481 14.84 103.193 14.6373 103.001 14.36C102.788 14.1253 102.681 13.8373 102.681 13.496C102.681 13.368 102.681 13.2507 102.681 13.144C102.703 13.016 102.724 12.888 102.745 12.76C102.809 12.5893 102.948 12.376 103.161 12.12C103.289 12.0133 103.492 11.928 103.769 11.864C103.897 11.8213 104.025 11.7893 104.153 11.768C104.281 11.7253 104.431 11.6933 104.601 11.672C104.729 11.6507 104.868 11.64 105.017 11.64C105.167 11.64 105.316 11.64 105.465 11.64H108.377C108.612 11.6187 108.879 11.6507 109.177 11.736C109.497 11.8 109.743 11.9067 109.913 12.056C109.977 12.1413 110.041 12.2267 110.105 12.312C110.169 12.3973 110.223 12.4933 110.265 12.6C110.351 12.8347 110.404 13.0693 110.425 13.304C110.447 13.432 110.457 13.5707 110.457 13.72C110.479 13.848 110.489 13.9653 110.489 14.072V15.384ZM118.725 1.112C120.155 0.578665 121.445 0.343999 122.597 0.407999C123.771 0.471999 124.816 0.770666 125.733 1.304C126.651 1.816 127.429 2.50933 128.069 3.384C128.731 4.25867 129.264 5.24 129.669 6.328C129.989 7.13867 130.235 7.992 130.405 8.888C130.576 9.784 130.672 10.68 130.693 11.576C130.736 12.4507 130.704 13.3147 130.597 14.168C130.512 15.0213 130.363 15.8107 130.149 16.536C130.021 17.0267 129.872 17.4747 129.701 17.88C129.531 18.2853 129.328 18.6907 129.093 19.096C128.56 20.0133 127.867 20.76 127.013 21.336C126.181 21.912 125.264 22.3173 124.261 22.552C123.579 22.7227 122.875 22.808 122.149 22.808C121.424 22.7867 120.709 22.6907 120.005 22.52C119.301 22.328 118.619 22.0613 117.957 21.72C117.317 21.3573 116.731 20.9093 116.197 20.376C115.536 19.736 114.992 19 114.565 18.168C114.139 17.3147 113.808 16.4293 113.573 15.512C113.339 14.5733 113.189 13.6347 113.125 12.696C113.061 11.7573 113.061 10.8613 113.125 10.008C113.189 9.21867 113.339 8.376 113.573 7.48C113.829 6.584 114.192 5.72 114.661 4.888C115.131 4.056 115.696 3.30933 116.357 2.648C117.04 1.96533 117.829 1.45333 118.725 1.112ZM126.213 14.808C126.469 13.8053 126.576 12.6747 126.533 11.416C126.491 10.1573 126.288 8.97333 125.925 7.864C125.691 7.18133 125.392 6.584 125.029 6.072C124.688 5.53867 124.272 5.13333 123.781 4.856C123.312 4.57867 122.757 4.44 122.117 4.44C121.477 4.44 120.763 4.632 119.973 5.016C119.504 5.25067 119.099 5.57067 118.757 5.976C118.437 6.38133 118.171 6.84 117.957 7.352C117.765 7.864 117.605 8.39733 117.477 8.952C117.371 9.50667 117.307 10.04 117.285 10.552C117.243 11.1067 117.232 11.6933 117.253 12.312C117.275 12.9093 117.339 13.5173 117.445 14.136C117.573 14.7333 117.744 15.3093 117.957 15.864C118.171 16.3973 118.459 16.8773 118.821 17.304C119.376 17.944 120.016 18.392 120.741 18.648C121.488 18.8827 122.224 18.9147 122.949 18.744C124.123 18.488 125.019 17.7093 125.637 16.408C125.893 15.9387 126.085 15.4053 126.213 14.808Z"
          fill="#CE293B" />
</svg>